<svg width="20" height="21" viewBox="0 0 20 21" fill="none" xmlns="http://www.w3.org/2000/svg">
<path d="M17.071 3.87137C16.1434 2.94271 15.0412 2.20623 13.8277 1.70426C12.6143 1.20228 11.3134 0.944707 9.99998 0.946324C8.68625 0.94284 7.38488 1.19956 6.17115 1.70165C4.95743 2.20373 3.85545 2.94119 2.92899 3.87137C1.04 5.75782 0 8.26643 0 10.9328C0 13.5992 1.04 16.1078 2.92899 17.9943C4.81799 19.8807 7.32999 20.9193 9.99998 20.9193C12.67 20.9193 15.182 19.8807 17.071 17.9943C18.0024 17.0691 18.7409 15.9686 19.2436 14.7565C19.7464 13.5444 20.0035 12.2448 20 10.9328C20.0016 9.62114 19.7437 8.32207 19.241 7.11024C18.7384 5.89841 18.0009 4.7977 17.071 3.87137ZM15.657 16.5822C14.146 18.0912 12.137 18.922 9.99998 18.922C7.86299 18.922 5.85399 18.0912 4.34299 16.5822C2.832 15.0732 2 13.0669 2 10.9328C2 8.79871 2.832 6.79242 4.34299 5.28346C5.08417 4.53929 5.96579 3.94932 6.93681 3.54769C7.90783 3.14606 8.94897 2.94074 9.99998 2.94362V10.9328H18C18.0029 11.9824 17.7973 13.0222 17.3951 13.9919C16.9929 14.9616 16.4021 15.842 15.657 16.5822Z" fill="#0063F5"/>
</svg>
