<svg width="20" height="21" viewBox="0 0 20 21" fill="none" xmlns="http://www.w3.org/2000/svg">
<path d="M7.47751 0.918945V6.58213L2.52249 3.75012L0 8.07595L4.95502 10.9055L0 13.735L2.52249 18.0608L7.47751 15.2288V20.892H12.5225V15.2288L17.4775 18.0608L20 13.735L15.045 10.9055L20 8.07595L17.4775 3.75012L12.5225 6.58213V0.918945H7.47751ZM9.15917 2.58337H10.8408V9.46574L16.8612 6.02455L17.702 7.46428L11.6817 10.9055L17.702 14.3467L16.8612 15.7864L10.8408 12.3452V19.2276H9.15917V12.3452L3.13882 15.7864L2.29799 14.3467L8.31834 10.9055L2.29799 7.46428L3.13882 6.02455L9.15917 9.46574V2.58337Z" fill="#0063F5"/>
</svg>
